<svg xmlns="http://www.w3.org/2000/svg" xmlns:xlink="http://www.w3.org/1999/xlink" data-name="Layer 1" width="842" height="778.9199829101562" style=""><rect id="backgroundrect" width="100%" height="100%" x="0" y="0" fill="none" stroke="none"/><defs><linearGradient id="a" x1="0.5000000596046448" y1="1" x2="0.5000000596046448" y2="0"><stop offset="0" stop-color="gray" stop-opacity=".25"/><stop offset=".54" stop-color="gray" stop-opacity=".12"/><stop offset="1" stop-color="gray" stop-opacity=".1"/></linearGradient><linearGradient id="c" x1="274.44000244140625" y1="409.32000732421875" x2="274.44000244140625" y2="248.16000366210938" xlink:href="#a"/><linearGradient id="d" x1="274.44000244140625" y1="361.44000244140625" x2="274.44000244140625" y2="261.010009765625" xlink:href="#a"/><linearGradient id="f" x1="274.44000244140625" y1="616.030029296875" x2="274.44000244140625" y2="454.8699951171875" xlink:href="#a"/><linearGradient id="g" x1="274.44000244140625" y1="568.1500244140625" x2="274.44000244140625" y2="467.7200012207031" xlink:href="#a"/><linearGradient id="i" x1="688.760009765625" y1="765.8599853515625" x2="688.760009765625" y2="163.25999450683594" gradientTransform="rotate(90 665.375 476.845)" xlink:href="#a"/><linearGradient id="j" x1="688.1799926757812" y1="568.489990234375" x2="688.1799926757812" y2="409.6700134277344" gradientTransform="rotate(90 662.7 498.69)" xlink:href="#a"/><linearGradient id="k" x1="0.5000022053718567" y1="1.000004529953003" x2="0.5000022053718567" y2="0.000014021233255334664"><stop offset="0" stop-color="#b3b3b3" stop-opacity=".25"/><stop offset=".54" stop-color="#b3b3b3" stop-opacity=".1"/><stop offset="1" stop-color="#b3b3b3" stop-opacity=".05"/></linearGradient><linearGradient id="b" x1="0.4998006820678711" y1="0.9994863867759705" x2="0.4998006820678711" y2="0"><stop offset="0" stop-opacity=".12"/><stop offset=".55" stop-opacity=".09"/><stop offset="1" stop-opacity=".02"/></linearGradient><linearGradient id="l" x1="774.989990234375" y1="484.7300109863281" x2="774.989990234375" y2="425.1499938964844" xlink:href="#b"/><clipPath id="e" transform="translate(-179,-60.540000915527344) "><path data-name="&lt;Rectangle&gt;" fill="#fff" d="M381.54 322.72h143.79v96.93H381.54z" id="svg_1"/></clipPath><clipPath id="h" transform="translate(-179,-60.540000915527344) "><path data-name="&lt;Rectangle&gt;" fill="#fff" d="M381.54 529.42h143.79v96.93H381.54z" id="svg_2"/></clipPath></defs><g class="currentLayer" style=""><title>Layer 1</title><path fill="url(#a)" d="M154.15 130.21h448.44v602.6H154.15z" opacity=".5" id="svg_3" class=""/><path fill="#f2f2f2" d="M159.99 138.39h434.43v581.58H159.99z" id="svg_4" class=""/><path fill="#e0e0e0" d="M193.86 162.91h149.48v4.67H193.86z" id="svg_5"/><path fill="#e76767" opacity=".7" d="M193.86 183.93h149.48v4.67H193.86z" id="svg_6" class="" fill-opacity="1"/><path fill="#e0e0e0" d="M365.53 162.91h149.48v4.67H365.53zm23.35 133.14h149.48v4.67H388.88zm3.51 12.84h149.48v4.67H392.39zm7.01 12.85h149.48v4.67H399.4zm-10.52 181.01h149.48v4.67H388.88zm3.51 12.85h149.48v4.67H392.39zm7.01 12.84h149.48v4.67H399.4z" id="svg_7"/><path fill="url(#c)" d="M195.03 248.16h158.82v161.16H195.03z" opacity=".5" id="svg_8"/><path fill="#f5f5f5" d="M196.03 251.67h156.32v154.15H196.03z" id="svg_9"/><path fill="url(#d)" d="M201.54 261.01h145.8v100.43h-145.8z" opacity=".5" id="svg_10"/><path data-name="&lt;Rectangle&gt;" fill="#fff" d="M202.54 262.18h143.79v96.93H202.54z" id="svg_11"/><g clip-path="url(#e)" fill="#e98a8a" id="svg_12" class="" fill-opacity="1"><path opacity=".4" d="M190.35 355.61l36.21-56.06 15.18 24.52 32.7-33.86 28.03 33.86 24.52-50.21 63.06 100.43-204.37-7.01 4.67-11.67z" id="svg_13" fill="#e98a8a" fill-opacity="1"/><circle cx="218.3800048828125" cy="276.19000244140625" r="10.510000228881836" opacity=".4" id="svg_14" fill="#e98a8a" fill-opacity="1"/></g><path fill="url(#f)" d="M195.03 454.87h158.82v161.16H195.03z" opacity=".5" id="svg_15"/><path fill="#f5f5f5" d="M196.03 458.37h156.32v154.15H196.03z" id="svg_16"/><path fill="url(#g)" d="M201.54 467.72h145.8v100.43h-145.8z" opacity=".5" id="svg_17"/><path data-name="&lt;Rectangle&gt;" fill="#fff" d="M202.54 468.88h143.79v96.93H202.54z" id="svg_18"/><g clip-path="url(#h)" fill="#bdbdbd" id="svg_19"><path opacity=".4" d="M190.35 562.31l36.21-56.06 15.18 24.53 32.7-33.87 28.03 33.87 24.52-50.22 63.06 100.43-204.37-7 4.67-11.68z" id="svg_20"/><circle cx="218.3800048828125" cy="482.8999938964844" r="10.510000228881836" opacity=".4" id="svg_21"/></g><path transform="rotate(-78.76000213623047 551.2529907226562,578.9990234375) " fill="url(#i)" d="M376.36 276.01h602.6v448.44h-602.6z" opacity=".5" id="svg_22"/><path fill="#fff" d="M228.214 680.02l113.361-570.425 426.097 84.679-113.36 570.425z" id="svg_23"/><path fill="#e0e0e0" d="M367.32 142.077l302.395 60.096-.91 4.58-302.396-60.095zm-86.044 432.981l302.396 60.095-.91 4.58-302.397-60.095zm-5.246 26.335L509.7 647.83l-.91 4.58-233.67-46.437z" id="svg_24"/><path fill="#d50b0b" opacity=".7" d="M270.797 627.746l87.048 17.3-.91 4.58-87.048-17.3zm91.278-459.319l151.193 30.047-.91 4.58-151.194-30.046z" id="svg_25" class="" fill-opacity="1"/><path fill="#e0e0e0" d="M356.851 194.77l272.609 54.175-.91 4.58-272.61-54.175z" id="svg_26"/><path fill="#1aebeb" opacity=".7" d="M351.61 221.12l66.431 13.201-.91 4.58-66.43-13.201z" id="svg_27" class="" fill-opacity="1"/><path fill="#e0e0e0" d="M346.38 247.464l302.397 60.096-.91 4.58-302.397-60.095z" id="svg_28"/><path transform="rotate(-78.76000213623047 545.8980102539061,602.93701171875) " fill="url(#j)" d="M592.89 385.78h158.82v276.77H592.89z" opacity=".5" id="svg_29"/><path fill="#fff" d="M373.87606848335264,360.23 l268.029,53.266 l-30.275,152.34 l-268.029,-53.265 z" id="svg_30" class=""/><path fill="#e0e0e0" d="M341.145 273.818l302.396 60.095-.91 4.58-302.397-60.095z" id="svg_31"/><path fill="#990000" d="M398.533 386.426l33.22 6.601-22.08 111.108-33.22-6.602z" id="svg_32" class="" fill-opacity="1"/><path fill="#3ad29f" d="M450.809 434.918l33.22 6.602-14.796 74.454-33.22-6.602z" id="svg_33"/><path fill="#f55f44" d="M503.55 481.12l33.22 6.602-7.966 40.086-33.22-6.601z" id="svg_34"/><path fill="#fdd835" d="M571.308 451.72l33.22 6.603-16.162 81.33-33.22-6.603z" id="svg_35"/><path d="M701.45,350.00999908447267 a155.89,155.89 0 0 0 -223.11,-1.6800000000000002 c-59,59.48 -60,156.33 -2.29,217.07 A155.89,155.89 0 0 0 675.95,587.4599990844727 l112.69,117.21 a7.59,7.59 0 0 0 10.73,0.21000000000000002 l28.08,-27 a7.59,7.59 0 0 0 0.21000000000000002,-10.73 L715,549.9499990844727 a155.9,155.9 0 0 0 -13.55,-199.94 zM666.35,538.4599990844727 a111.5,111.5 0 1 1 3.1,-157.66 a111.5,111.5 0 0 1 -3.1,157.66 z" fill="url(#k)" id="svg_36" class=""/><path d="M701.45,350.00999908447267 a155.89,155.89 0 0 0 -223.11,-1.6800000000000004 c-59,59.48 -60,156.33 -2.29,217.07 A155.89,155.89 0 0 0 675.95,587.4599990844727 l112.69,117.21 a7.59,7.59 0 0 0 10.73,0.21000000000000005 l28.08,-27 a7.59,7.59 0 0 0 0.21000000000000005,-10.73 L715,549.9499990844727 a155.9,155.9 0 0 0 -13.55,-199.94 zM666.35,538.4599990844727 a111.5,111.5 0 1 1 3.1,-157.66 a111.5,111.5 0 0 1 -3.1,157.66 z" fill="url(#k)" class="" id="svg_50"/><path d="M506.49,427.0599990844727 c-12.54,0 -12.56,19.49 0,19.49 s12.56,-19.49 0,-19.49 z" fill="url(#b)" id="svg_37"/><path d="M593.9,364.6299990844727 c-33.75,-0.7600000000000001 -64.46,16.17 -80.79,41.73 c-5.33,8.34 9.8,15.71 15.1,7.41 c13.52,-21.16 39.21,-34.6 67,-33.9 c29.12,0.7300000000000001 55.62,17.39 69.65,40.51 c5.32,8.77 19.27,0.8 14,-7.92 c-17.06,-28 -50.1,-47 -84.96,-47.83 z" fill="url(#l)" id="svg_38"/><path d="M713.68 344.09a155.89 155.89 0 00-223.11-1.68c-59 59.48-60 156.33-2.29 217.07a155.89 155.89 0 00199.9 22.05l112.68 117.22a7.59 7.59 0 0010.73.21l28.08-27a7.59 7.59 0 00.21-10.73L727.19 544.02a155.9 155.9 0 00-13.51-199.93zm-35.1 188.37a111.5 111.5 0 113.1-157.66 111.5 111.5 0 01-3.1 157.66z" fill="#990000" id="svg_39" class="" fill-opacity="1"/><path d="M518.72 421.13c-12.54 0-12.56 19.49 0 19.49s12.56-19.49 0-19.49zm87.41-62.42c-33.75-.76-64.46 16.17-80.79 41.73-5.33 8.34 9.8 15.71 15.1 7.41 13.52-21.16 39.21-34.6 67-33.9 29.12.73 55.62 17.39 69.65 40.51 5.32 8.77 19.27.8 14-7.92-17.09-28.08-50.09-47.08-84.96-47.83z" fill="#990000" id="svg_40" class="" fill-opacity="1"/><path fill="#47e6b1" d="M121.45 663.91h3.5v19.85h-3.5z" id="svg_41" class=""/><path fill="#e84141" d="M121.45,663.91 h3.5 v19.85 h-3.5 z" class="" id="svg_49" fill-opacity="1"/><path fill="#e76767" d="M133.13 672.08v3.5h-19.85v-3.5z" id="svg_42" class="" fill-opacity="1"/><path d="M571.87 7.95a4.29 4.29 0 01-2.39-5.19 2.06 2.06 0 00.09-.48A2.15 2.15 0 00565.7.85a2.06 2.06 0 00-.24.42 4.29 4.29 0 01-5.19 2.39 2.06 2.06 0 00-.48-.09 2.15 2.15 0 00-1.41 3.89 2.06 2.06 0 00.42.24 4.29 4.29 0 012.39 5.19 2.06 2.06 0 00-.09.48 2.15 2.15 0 003.9 1.41 2.06 2.06 0 00.24-.42 4.29 4.29 0 015.19-2.39 2.06 2.06 0 00.48.09 2.15 2.15 0 001.43-3.87 2.06 2.06 0 00-.47-.24z" fill="#4d8af0" id="svg_43"/><path d="M137.44 155.1a4.29 4.29 0 01-2.39-5.19 2.06 2.06 0 00.09-.48 2.15 2.15 0 00-3.87-1.43 2.06 2.06 0 00-.24.42 4.29 4.29 0 01-5.19 2.39 2.06 2.06 0 00-.48-.09 2.15 2.15 0 00-1.43 3.87 2.06 2.06 0 00.42.24 4.29 4.29 0 012.39 5.19 2.06 2.06 0 00-.09.48 2.15 2.15 0 003.87 1.43 2.06 2.06 0 00.24-.42 4.29 4.29 0 015.19-2.39 2.06 2.06 0 00.48.09 2.15 2.15 0 001.43-3.87 2.06 2.06 0 00-.42-.24zm617.78 607.26a4.29 4.29 0 01-2.39-5.19 2.06 2.06 0 00.09-.48 2.15 2.15 0 00-3.87-1.43 2.06 2.06 0 00-.24.42 4.29 4.29 0 01-5.19 2.39 2.06 2.06 0 00-.48-.09 2.15 2.15 0 00-1.43 3.87 2.06 2.06 0 00.42.24 4.29 4.29 0 012.39 5.19 2.06 2.06 0 00-.09.48 2.15 2.15 0 003.87 1.43 2.06 2.06 0 00.24-.42 4.29 4.29 0 015.19-2.39 2.06 2.06 0 00.48.09 2.15 2.15 0 001.43-3.87 2.06 2.06 0 00-.42-.24z" fill="#fdd835" id="svg_44"/><circle cx="321.1499938964844" cy="75.33000183105469" r="7.010000228881836" fill="#f55f44" id="svg_45"/><circle cx="823.3099975585938" cy="162.91000366210938" r="7.010000228881836" fill="#f55f44" id="svg_46"/><circle cx="783.6099853515625" cy="371.95001220703125" r="7.010000228881836" fill="#990000" id="svg_47" class="" fill-opacity="1"/><circle cx="7.010000228881836" cy="28.610000610351562" r="7.010000228881836" fill="#47e6b1" opacity=".5" id="svg_48"/></g></svg>