<svg width="28" height="28" viewBox="0 0 28 28" fill="none" xmlns="http://www.w3.org/2000/svg">
<path d="M10.9374 14.9332V12.4507C10.9374 10.6774 12.282 9.22656 13.9254 9.22656C15.5689 9.22656 16.9135 10.6773 16.9135 12.1927V14.9331" stroke="black" stroke-width="2.1"/>
<path d="M20.0572 21.0884C20.0572 22.9312 18.5494 24.4392 16.7064 24.4392H11.1442C9.30116 24.4392 7.79333 22.9313 7.79333 21.0884V18.0056C7.79333 16.1626 9.30116 14.6548 11.1442 14.6548H16.7064C18.5493 14.6548 20.0572 16.1626 20.0572 18.0056V21.0884Z" stroke="black" stroke-width="2.1"/>
<path d="M25 11.6413C23.7974 6.68247 19.3288 3 14 3C8.67115 3 4.20259 6.68267 3 11.6415V4.3047" stroke="black" stroke-width="2.1" stroke-linecap="round" stroke-linejoin="round"/>
</svg>
