<svg width="934" height="934" viewBox="0 0 934 934" fill="none" xmlns="http://www.w3.org/2000/svg">
<path d="M466.585 352.149C493.725 352.149 520.865 352.259 548.005 352.149C560.301 352.039 569.496 357.641 577.361 366.538C586.887 377.412 596.968 387.737 606.605 398.501C611.922 404.323 616.907 410.364 622.003 416.186C628.317 423.325 634.521 430.575 640.835 437.714C655.014 453.531 669.969 468.689 683.373 485.165C692.678 496.699 696.444 510.209 689.022 524.818C685.366 532.067 689.687 537.998 692.899 544.149C696.222 550.301 699.213 556.561 702.204 562.822C708.518 575.783 706.857 588.964 701.872 601.596C698.549 609.944 693.231 617.413 688.69 625.321C681.822 637.294 668.972 641.688 658.116 648.498C645.266 656.516 632.305 664.205 619.012 671.674C600.956 681.779 582.678 691.445 564.511 701.441C555.649 706.274 546.787 711.216 537.814 715.939C527.512 721.431 516.656 724.617 504.692 724.617C478.881 724.727 453.071 725.935 427.149 725.605C414.521 725.496 401.893 722.969 390.483 716.599C377.854 709.459 365.115 702.539 352.487 695.29C338.529 687.161 324.793 678.704 310.835 670.576C300.09 664.315 289.123 658.383 278.378 652.122C268.298 646.301 257.552 641.138 248.58 633.999C242.044 628.726 237.28 620.928 232.517 613.678C223.101 599.399 224.874 583.143 226.203 567.326C226.978 558.319 232.406 550.52 238.056 543.381C239.939 540.964 241.711 538.548 243.152 535.911C243.705 534.813 243.484 532.946 243.041 531.738C241.268 527.124 238.831 522.621 237.28 517.898C235.84 513.724 237.059 509.879 238.167 505.376C240.604 495.82 246.696 488.57 251.903 480.882C255.448 475.719 260.654 471.655 264.864 467.042C272.618 458.474 280.15 449.797 287.794 441.229C292.779 435.627 297.985 430.355 302.859 424.753C312.497 413.55 321.913 402.126 331.439 390.813C337.643 383.453 343.625 375.765 350.05 368.625C360.019 357.531 372.426 351.819 387.935 352.039C413.967 352.588 439.999 352.149 466.031 352.149C466.585 352.039 466.585 352.149 466.585 352.149ZM311.057 532.397C316.042 533.165 319.476 533.934 323.021 534.264C331.218 535.143 340.08 534.374 346.837 539.866C352.93 544.809 358.358 550.74 363.454 556.781C370.211 564.69 376.193 573.257 382.839 581.275C390.372 590.282 397.794 599.509 406.102 607.747C414.41 615.985 423.494 623.674 436.565 623.454C454.289 623.234 472.013 623.015 489.737 623.344C503.473 623.564 514.219 618.292 522.859 607.967C532.053 597.092 541.58 586.548 550.996 575.783C557.089 568.754 563.071 561.614 569.163 554.584C585.447 535.692 585.447 535.692 611.036 534.154C611.922 534.154 612.919 534.154 613.806 533.934C615.246 533.605 616.686 533.056 618.79 532.397C617.24 531.188 616.464 530.31 615.578 529.98C606.716 526.026 597.854 521.852 588.77 518.557C585.004 517.239 580.241 517.129 576.253 518.008C570.382 519.326 565.618 522.181 564.511 529.651C563.403 537.01 562.406 544.918 556.313 550.52C549.334 557.001 542.466 563.481 535.487 569.962C530.724 574.246 526.072 578.639 520.976 582.484C515.769 586.438 509.455 587.207 503.695 584.79C497.935 582.264 495.165 577.431 495.608 570.621C496.495 553.596 497.824 536.68 503.917 520.644C507.018 512.516 511.56 504.717 516.656 497.687C521.308 491.426 527.179 485.715 533.383 480.882C540.14 475.719 546.897 470.117 556.202 469.239C563.846 468.579 571.489 467.481 579.133 466.493C578.69 459.463 565.951 453.422 559.193 455.289C538.035 460.891 516.877 466.273 495.608 471.545C491.399 472.644 487.079 473.632 482.648 473.962C459.717 475.609 437.119 473.742 414.742 467.811C400.231 463.966 385.609 460.232 370.986 456.827C361.903 454.74 353.705 459.463 349.496 468.799C353.041 469.019 356.253 469.458 359.466 469.458C378.74 468.909 394.138 476.708 407.21 490.328C420.946 504.717 430.029 521.303 432.245 540.964C433.685 553.266 432.91 565.788 433.02 578.31C433.02 579.298 432.577 580.507 431.802 581.166C424.38 587.097 411.973 586.987 404.773 580.507C395.689 572.378 387.381 563.591 378.076 555.793C371.54 550.301 367.663 544.479 367.441 535.472C367.331 531.408 363.675 525.806 360.019 523.609C352.708 519.216 344.068 518.227 335.427 520.094C326.565 521.852 318.59 524.598 311.057 532.397ZM464.037 391.582C452.96 391.691 439.445 403.334 440.332 412.891C441.55 426.181 449.969 436.067 465.81 436.177C477.109 436.286 488.74 424.534 488.408 413.55C488.076 402.675 477.109 390.483 464.037 391.582Z" fill="#DD5471"/>
<path d="M466.253 342.263C425.709 344.35 391.036 306.785 390.704 267.682C390.372 224.624 426.263 191.233 464.813 192.221C514.329 193.43 540.029 223.526 541.137 266.363C542.134 307.004 510.563 342.483 466.253 342.263Z" fill="#DD5471"/>
<path d="M740.313 333.146C739.316 332.377 737.876 331.718 737.211 330.51C732.891 322.492 728.571 314.364 724.472 306.126C720.705 298.766 720.927 298.766 728.792 294.043C745.519 283.938 762.025 273.503 778.641 263.398C801.128 249.778 823.616 236.267 846.103 222.757C848.651 221.219 851.42 220.231 853.857 218.693C860.836 214.08 862.83 214.519 866.818 221.659C872.357 231.544 878.006 241.43 883.767 251.315C885.871 254.83 885.207 257.686 882.105 259.883C879.779 261.64 877.231 263.068 874.572 264.496C854.411 274.711 834.139 284.817 814.089 295.251C799.356 302.94 784.955 311.178 770.222 318.867C761.36 323.48 752.276 327.764 743.304 332.048C742.528 332.487 741.642 332.707 740.313 333.146Z" fill="#DD5471"/>
<path d="M210.916 637.513C209.698 639.05 208.479 641.906 206.375 643.444C201.833 646.959 196.737 649.815 191.863 652.89C182.004 659.261 172.256 665.741 162.175 671.892C151.984 678.153 141.35 683.865 131.269 690.126C114.985 700.121 98.8119 710.337 82.7495 720.771C75.106 725.714 70.7857 725.714 65.9116 718.135C59.7082 708.359 54.0587 698.254 48.5199 688.149C46.969 685.293 47.4121 682.217 51.0677 680.24C68.7918 671.014 86.6266 661.787 104.24 652.341C119.527 644.103 134.592 635.535 149.99 627.407C162.84 620.597 175.801 614.117 188.872 607.856C190.423 607.087 194.189 607.965 194.965 609.174C200.393 617.302 205.267 625.65 210.252 633.998C210.584 634.766 210.584 635.535 210.916 637.513Z" fill="#DD5471"/>
<path d="M440.996 0.000732422C448.307 0.000732422 455.286 0.000732422 462.264 0.000732422C469.686 0.110573 476.998 0.220413 484.419 0.330253C491.841 0.440093 492.063 0.440093 491.952 8.01907C491.731 21.1999 491.288 34.3807 490.844 47.4517C489.848 74.1429 488.851 100.834 487.743 127.525C487.3 138.07 486.524 148.614 486.081 159.269C485.86 164.212 483.09 165.969 478.659 166.079C470.13 166.189 461.711 166.079 453.181 166.079C448.861 166.079 446.867 163.882 446.645 159.708C446.091 149.164 445.205 138.509 444.873 127.965C443.543 87.763 442.325 47.5615 441.106 7.36002C440.996 5.3829 440.996 3.40578 440.996 0.000732422Z" fill="#DD5471"/>
<path d="M211.691 301.951C209.586 306.015 208.257 309.091 206.484 312.057C203.272 317.549 199.949 322.931 196.736 328.423C193.856 333.366 191.419 334.134 186.766 331.498C166.494 320.514 146.223 309.53 125.951 298.546C108.448 289.1 90.8349 279.654 73.2217 270.207C66.3536 266.583 59.264 263.178 52.5067 259.443C49.1835 257.576 46.7464 256.148 50.1804 251.095C56.1623 242.418 60.5933 232.642 65.689 223.306C67.0183 220.889 67.9045 218.033 69.8984 216.496C71.5601 215.287 75.1049 214.958 76.7665 215.837C88.6194 222.866 100.14 230.335 111.882 237.585C120.08 242.638 128.388 247.58 136.474 252.743C143.342 257.136 149.878 261.969 156.857 266.253C162.95 270.098 169.485 273.283 175.689 277.127C184.44 282.619 193.081 288.331 201.721 293.933C203.05 294.812 204.823 295.141 206.041 296.13C208.035 297.887 209.808 299.974 211.691 301.951Z" fill="#DD5471"/>
<path d="M0.000488281 412.341C0.111264 395.535 5.09615 380.048 8.08708 363.572C10.9672 363.791 13.6258 363.681 16.2845 364.231C34.4516 368.075 52.6187 372.249 70.7859 375.983C85.6298 379.059 100.695 381.805 115.539 384.881C131.934 388.176 148.329 391.471 164.613 395.205C166.274 395.535 168.711 398.94 168.49 400.588C167.603 408.606 165.831 416.624 164.391 424.643C164.28 424.972 164.28 425.412 164.169 425.741C161.843 435.846 161.954 435.627 151.652 434.199C136.365 432.112 120.967 430.464 105.68 428.377C96.0427 427.059 86.4052 425.302 76.7678 423.874C64.9148 422.116 53.0618 420.579 41.2089 418.821C27.6943 416.844 14.1797 414.647 0.000488281 412.341Z" fill="#DD5471"/>
<path d="M256.89 248.679C251.684 243.187 247.031 238.464 242.489 233.631C237.061 227.809 231.744 221.878 226.427 215.947C216.568 204.743 206.82 193.429 196.739 182.445C189.871 174.976 182.117 168.166 175.47 160.587C166.497 150.482 158.189 139.827 149.438 129.502C147.333 199 149.77 122.912C159.629 114.564 169.488 106.216 179.569 97.9783C183.446 94.7929 186.991 96.6602 189.539 99.8456C199.287 112.258 208.703 124.889 218.562 137.191C225.651 145.978 233.295 154.326 240.384 163.004C245.037 168.715 249.247 174.866 253.788 180.688C260.546 189.365 267.414 197.823 274.06 206.391C277.273 210.564 280.485 214.738 283.365 219.132C285.802 222.867 286.245 226.052 281.814 229.347C275.722 233.851 270.405 239.233 264.534 244.066C262.207 246.043 259.327 247.361 256.89 248.679Z" fill="#DD5471"/>
<path d="M0.333261 533.494C0.111711 526.464 0.111711 526.244 8.86296 525.146C39.88 521.082 71.0079 517.238 102.025 512.954C119.084 510.647 136.144 507.682 153.092 504.716C160.625 503.398 162.951 505.155 164.17 512.514C165.499 520.533 167.382 528.441 169.155 536.35C170.373 541.512 167.825 543.819 163.173 544.807C128.5 551.837 93.9384 558.867 59.2657 565.787C45.6404 568.533 31.9042 571.279 18.1681 573.586C7.53365 575.343 6.97978 575.123 4.87505 564.798C2.77032 554.693 1.77334 544.148 0.333261 533.494Z" fill="#DD5471"/>
<path d="M257.996 691.663C261.097 693.421 263.756 694.409 265.75 696.057C271.289 700.451 276.717 704.844 281.812 709.677C284.803 712.533 287.684 715.608 283.806 720.222C279.043 726.153 274.944 732.744 270.181 738.675C255.005 757.677 239.607 776.46 224.431 795.352C214.793 807.325 205.488 819.517 195.962 831.49C193.081 835.115 189.758 838.52 186.656 842.034C184.663 844.231 182.779 844.012 180.453 842.144C170.594 833.906 160.514 826.108 150.987 817.54C149.436 816.112 149.104 811.06 150.433 809.412C155.861 802.712 162.175 796.671 168.046 790.3C174.914 782.721 181.672 774.922 188.318 767.233C192.749 762.181 196.848 756.908 201.39 751.966C207.815 745.046 214.683 738.565 220.997 731.645C231.299 720.222 241.158 708.579 251.349 697.045C253.454 695.068 255.891 693.421 257.996 691.663Z" fill="#DD5471"/>
<path d="M647.483 224.183C655.902 213.529 663.545 203.863 671.078 194.197C681.823 180.467 692.679 166.847 703.424 153.007C712.286 141.584 720.705 129.941 729.567 118.517C734.774 111.707 740.313 105.117 745.63 98.3066C748.067 95.2311 750.836 95.7803 753.384 97.6476C758.923 101.712 764.24 106.215 769.668 110.389C773.656 113.465 777.755 116.54 781.743 119.616C787.392 123.79 787.946 127.085 783.404 132.357C773.213 143.89 762.8 155.204 752.387 166.627C738.429 182.005 724.583 197.492 710.514 212.76C702.095 221.767 693.344 230.444 684.814 239.341C684.26 240 684.15 240.989 683.596 241.758C679.608 248.019 676.063 248.458 670.413 243.735C662.991 237.364 655.459 230.994 647.483 224.183Z" fill="#DD5471"/>
<path d="M764.573 400.917C765.902 399.818 767.563 397.512 769.557 397.182C795.479 391.8 821.4 386.638 847.322 381.365C865.71 377.631 884.099 373.896 902.488 370.161C909.023 368.843 915.448 367.635 921.984 366.647C923.092 366.537 924.754 367.525 925.418 368.404C926.415 369.832 926.969 371.699 927.301 373.457C929.517 385.429 931.732 397.402 933.837 409.484C934.613 413.878 932.619 416.184 927.855 416.734C907.583 419.26 887.422 422.116 867.15 424.642C846.879 427.169 826.496 429.475 806.224 432.111C796.697 433.32 787.281 434.638 777.866 436.285C773.656 437.054 771.219 435.297 770.444 431.672C768.339 422.006 766.677 412.34 764.573 400.917Z" fill="#DD5471"/>
<path d="M723.585 632.57C725.911 627.517 727.794 622.794 730.231 618.51C732.89 613.787 735.881 609.174 739.315 605C740.644 603.462 744.078 602.584 746.183 602.913C749.285 603.462 752.276 605.439 755.156 606.977C777.865 619.279 800.574 631.691 823.283 643.993C842.668 654.538 862.054 665.192 881.329 675.847C887.532 679.252 887.865 682.218 883.988 688.149C878.006 697.485 872.245 707.151 866.596 716.598C864.491 720.003 862.829 721.76 858.398 718.794C849.536 712.863 840.01 707.81 830.926 702.099C822.396 696.717 814.088 690.785 805.559 685.403C798.358 680.9 790.936 676.945 783.625 672.662C780.413 670.794 777.311 668.707 774.098 666.73C758.479 657.064 742.749 647.398 727.13 637.623C725.579 636.634 724.803 634.437 723.585 632.57Z" fill="#DD5471"/>
<path d="M765.016 530.639C766.234 524.158 767.453 516.03 769.447 508.122C769.779 506.584 773.324 504.716 775.096 504.936C786.839 506.035 798.47 507.462 810.212 509.11C825.832 511.417 841.451 514.053 857.181 516.469C881.108 520.204 905.147 523.938 929.074 527.673C932.619 528.222 934.281 530.199 933.727 533.714C931.622 546.126 929.517 558.428 927.302 570.84C926.526 575.014 924.2 576.881 919.88 575.893C902.599 571.939 885.207 567.984 867.926 564.25C851.31 560.735 834.583 557.659 818.077 554.035C801.35 550.41 784.734 546.456 768.118 542.392C766.899 542.062 765.681 539.755 765.237 538.108C764.684 536.35 765.016 534.263 765.016 530.639Z" fill="#DD5471"/>
<path d="M484.089 770.09C485.419 787.774 487.08 804.689 487.856 821.605C488.853 846.099 488.963 870.594 489.85 895.088C490.182 904.974 491.511 914.749 491.954 924.635C492.287 932.543 491.179 933.752 483.425 933.862C469.799 934.081 456.174 933.971 441.884 933.971C441.662 930.786 441.219 927.71 441.33 924.745C441.995 906.292 442.881 887.838 443.324 869.385C443.878 842.694 444.099 816.003 444.542 789.312C444.542 786.236 444.542 783.051 444.986 779.975C446.315 771.408 448.42 769.87 455.731 770.09C464.925 770.419 474.23 770.09 484.089 770.09Z" fill="#DD5471"/>
<path d="M606.606 20.9812C616.797 24.4961 625.438 27.5716 634.078 30.6471C637.402 31.8554 640.503 33.6128 643.827 34.4915C648.59 35.8096 649.144 39.1048 647.704 42.5099C643.494 53.0545 638.62 63.3795 634.411 73.9242C631.309 81.7228 628.872 89.851 625.881 97.7595C623.001 105.229 619.788 112.478 616.908 119.837C613.917 127.416 611.259 134.995 608.268 142.574C605.388 149.934 602.175 157.183 599.073 164.542C595.972 171.792 592.759 178.931 589.768 186.291C588.55 189.146 586.888 190.135 583.786 188.927C576.475 186.181 569.053 183.435 561.631 180.908C554.431 178.382 551.662 172.341 554.542 165.311C557.09 159.16 559.527 153.009 561.631 146.748C567.059 131.151 572.487 115.554 577.694 99.8464C580.685 90.7297 583.233 81.5031 586.223 72.3864C589.436 62.1713 592.981 52.066 596.304 41.8508C597.855 37.2375 598.852 32.4046 600.846 28.011C602.064 25.265 604.723 23.0682 606.606 20.9812Z" fill="#DD5471"/>
<path d="M787.059 808.204C786.172 809.632 785.618 811.17 784.621 812.048C776.203 819.078 767.673 826.108 759.143 833.138C758.478 833.687 757.482 833.906 756.928 834.566C751.278 840.058 750.392 839.838 745.296 833.467C738.76 825.119 731.782 816.991 725.246 808.643C715.608 796.451 706.193 784.039 696.444 771.847C689.133 762.62 681.379 753.833 674.178 744.607C666.646 735.05 659.556 725.165 652.245 715.499C649.697 712.094 649.919 709.238 653.242 706.492C659.778 701 666.203 695.398 672.738 689.906C676.172 687.05 679.274 688.258 681.933 691.114C688.69 698.364 695.447 705.723 702.205 712.972C710.513 721.979 718.821 730.876 726.908 739.993C731.671 745.266 736.102 750.977 740.865 756.25C745.629 761.522 750.724 766.465 755.488 771.737C765.236 782.391 774.984 793.046 784.621 803.81C785.729 805.019 786.283 806.666 787.059 808.204Z" fill="#DD5471"/>
<path d="M379.295 175.306C377.965 176.624 376.636 179.04 374.642 179.919C366.888 183.104 359.023 186.07 350.936 188.706C344.954 190.683 344.179 189.585 342.185 183.873C339.748 176.953 336.314 170.363 333.545 163.553C329.224 153.228 325.126 143.013 320.916 132.688C317.482 124.34 314.159 115.992 310.836 107.534C308.066 100.285 305.408 93.0354 302.527 85.786C299.426 78.0972 296.102 70.5182 293.001 62.8294C290.121 55.7996 287.24 48.66 285.025 41.4106C283.585 37.017 288.127 35.9185 290.896 34.8201C301.198 30.6462 311.833 27.1313 322.245 23.2869C328.338 21.0901 329.778 21.5295 331.883 27.6805C336.757 41.9598 341.188 56.4587 346.062 70.7379C349.275 80.294 353.152 89.7402 356.364 99.2963C359.023 107.205 360.906 115.223 363.454 123.132C366.999 134.116 370.876 144.99 374.31 155.974C376.193 161.795 377.412 167.946 379.295 175.306Z" fill="#DD5471"/>
<path d="M331.33 918.155C318.037 913.322 306.074 909.038 294.221 904.535C288.239 902.338 286.466 897.834 289.014 891.793C294.442 878.942 300.092 866.2 305.187 853.349C309.508 842.475 313.053 831.161 317.373 820.287C321.471 810.072 326.346 800.187 330.444 789.971C334.654 779.537 338.42 768.992 342.408 758.557C342.63 757.898 342.63 757.129 342.851 756.47C345.62 748.891 347.614 747.683 355.369 750.319C363.344 752.955 371.21 755.811 378.964 758.887C382.509 760.315 382.841 763.39 381.733 766.685C378.299 776.571 374.865 786.456 371.32 796.342C368.883 803.262 365.892 810.072 363.677 817.102C360.021 828.635 357.03 840.388 353.375 851.921C348.611 866.75 343.516 881.358 338.531 896.077C336.205 903.217 333.878 910.466 331.33 918.155Z" fill="#DD5471"/>
<path d="M605.61 914.639C603.948 912.882 601.511 911.454 600.736 909.367C595.751 895.197 591.098 881.028 586.556 866.749C582.679 854.337 579.467 841.595 575.479 829.183C571.602 817.211 567.171 805.568 563.072 793.595C559.86 784.039 556.758 774.373 553.767 764.707C552.216 759.545 555.318 756.909 559.749 755.261C567.282 752.515 574.814 749.549 582.569 747.243C584.563 746.693 588.661 747.902 589.326 749.439C592.538 756.25 594.754 763.389 597.523 770.419C600.182 777.339 602.951 784.149 605.831 790.959C608.712 797.879 611.813 804.799 614.693 811.719C618.238 820.177 621.561 828.744 624.885 837.312C630.091 850.602 635.298 863.783 640.615 877.074C642.387 881.467 643.606 886.081 646.264 889.925C649.255 894.319 647.704 896.845 643.938 898.712C636.848 902.117 629.648 905.303 622.337 908.378C617.241 910.575 612.035 912.223 605.61 914.639Z" fill="#DD5471"/>
<path d="M244.038 677.715C242.931 679.582 242.377 681.34 241.158 682.658C238.5 685.733 235.73 688.699 232.739 691.445C220.111 703.308 207.372 715.171 194.633 726.923C186.546 734.283 178.238 741.203 169.93 748.342C163.726 753.724 162.286 753.834 157.08 747.793C150.322 739.885 143.787 731.756 137.14 723.738C134.038 720.004 134.703 716.379 138.58 713.413C152.427 703.088 166.274 692.653 180.121 682.328C192.639 673.102 205.267 664.095 217.674 654.868C221.219 652.232 223.656 651.793 226.647 656.077C230.856 662.118 236.062 667.39 240.826 673.102C242.155 674.53 243.041 676.177 244.038 677.715Z" fill="#DD5471"/>
<path d="M800.684 220.78C770.886 243.517 741.863 265.595 712.175 288.112C709.073 284.817 705.639 281.412 702.427 277.787C698.439 273.064 694.562 268.231 691.017 263.179C690.241 262.08 690.463 259.444 691.238 258.126C692.9 255.49 695.116 253.073 697.553 250.877C711.621 238.355 725.911 226.053 739.98 213.641C747.512 206.941 754.713 200.021 762.135 193.211C770.332 185.851 770.443 185.851 777.976 194.419C785.397 202.767 792.598 211.334 800.684 220.78Z" fill="#DD5471"/>
<path d="M763.353 555.242C773.655 558.537 783.071 561.393 792.487 564.468C812.648 571.059 832.92 577.759 853.081 584.349C854.078 584.679 855.297 584.569 856.404 584.789C863.605 586.107 865.931 589.841 863.494 596.542C859.728 606.976 855.85 617.192 852.306 627.736C850.866 632.13 847.875 631.361 845.327 630.263C817.301 618.4 789.496 606.317 761.581 594.235C758.811 593.027 756.153 591.379 753.162 590.391C748.288 588.743 748.398 585.448 749.728 581.713C752.497 574.024 755.045 566.336 758.257 558.757C759.033 557.219 761.691 556.45 763.353 555.242Z" fill="#DD5471"/>
<path d="M403.776 58.5445C414.854 58.215 414.521 58.3248 415.74 66.3432C418.62 86.5538 422.165 106.655 425.045 126.865C426.264 135.323 426.264 144 427.039 152.458C427.371 155.643 428.368 158.829 428.811 162.014C429.365 166.078 427.593 168.714 423.273 169.373C416.515 170.472 409.869 171.9 403.112 172.668C393.363 173.877 391.923 172.339 390.151 162.673C388.268 152.568 385.609 142.462 383.504 132.357C380.735 118.957 378.298 105.556 375.529 92.1556C374.199 85.3455 372.538 78.6453 371.208 71.8352C370.433 67.7711 370.544 64.9152 376.525 64.0365C386.717 62.9381 396.687 60.0823 403.776 58.5445Z" fill="#DD5471"/>
<path d="M69.5669 592.04C70.6746 590.941 72.004 588.085 74.1087 587.426C90.725 582.154 107.452 577.431 124.068 572.378C134.924 569.083 145.669 565.349 156.415 561.943C159.516 560.955 162.84 560.296 166.052 559.417C173.585 557.55 174.914 558.319 177.462 565.349C179.567 571.28 181.893 577.101 184.441 582.813C187.099 588.744 185.327 591.6 177.24 595.005C164.058 600.607 150.987 606.539 137.694 612.031C127.835 616.095 117.865 619.719 108.006 623.564C101.47 626.09 94.9344 628.507 88.6202 631.362C84.8539 633.12 82.6384 631.692 81.5306 628.726C77.4319 617.632 73.7764 606.429 70.01 595.225C69.7884 594.676 69.7884 594.127 69.5669 592.04Z" fill="#DD5471"/>
<path d="M503.253 156.743C505.025 143.562 507.24 128.953 509.013 114.345C510.674 101.164 511.671 87.7632 513.333 74.5824C513.998 69.6396 515.659 64.6968 517.321 59.8638C517.764 58.7654 520.312 57.5571 521.752 57.7768C533.494 59.6441 545.236 61.8409 557.089 63.818C560.856 64.4771 561.077 67.4428 560.634 70.0789C559.305 77.9874 557.865 85.8959 556.203 93.6946C554.098 103.47 551.994 113.246 549.557 122.912C547.452 131.699 544.793 140.377 542.689 149.274C541.138 155.644 539.919 162.015 538.701 168.386C538.036 172.12 536.264 173.878 532.165 173.109C523.635 171.571 515.105 170.253 506.576 168.496C505.246 168.166 503.806 166.189 503.363 164.651C502.809 162.784 503.253 160.477 503.253 156.743Z" fill="#DD5471"/>
<path d="M134.814 219.79C143.566 209.794 151.874 200.018 160.514 190.462C165.388 185.08 166.829 185.19 173.807 191.671C182.226 199.469 190.313 207.597 198.843 215.396C211.914 227.369 225.096 239.231 238.279 250.984C245.701 257.575 246.033 261.199 239.608 268.669C235.398 273.611 231.189 278.444 226.979 283.387C224.764 285.914 222.659 287.012 219.447 284.595C212.025 278.774 204.381 273.172 196.849 267.351C183.223 256.806 169.819 246.151 156.194 235.607C151.098 231.652 145.67 228.028 140.353 224.183C138.692 223.085 137.03 221.657 134.814 219.79Z" fill="#DD5471"/>
<path d="M691.791 672.443C692.566 670.576 692.788 669.148 693.563 668.269C699.213 661.679 705.084 655.089 710.734 648.498C712.728 646.191 714.5 646.411 716.826 648.059C728.015 656.407 739.424 664.425 750.502 672.773C764.792 683.537 778.86 694.631 792.929 705.725C802.345 713.194 802.456 713.414 794.701 722.97C788.83 730.219 782.516 736.919 776.423 743.949C774.651 745.926 772.989 747.025 770.441 744.718C753.382 729.78 736.212 714.951 719.153 699.903C711.287 692.983 703.644 685.844 696.111 678.594C694.339 676.947 693.12 674.42 691.791 672.443Z" fill="#DD5471"/>
<path d="M772.547 490.437C772.547 478.135 772.547 466.711 772.547 455.068C773.876 454.849 774.984 454.629 775.981 454.629C808.549 453.311 841.117 451.993 873.685 450.784C881.107 450.455 881.993 450.894 882.325 458.034C882.879 469.018 882.657 479.892 882.657 490.876C882.657 495.16 880.663 497.357 875.789 497.027C855.961 495.599 836.132 494.501 816.192 493.402C804.782 492.743 793.373 492.304 781.963 491.645C778.972 491.315 775.87 490.766 772.547 490.437Z" fill="#DD5471"/>
<path d="M186.216 351.381C184.443 356.324 183.114 360.278 181.674 364.122C180.012 368.516 178.35 373.019 176.356 377.193C174.473 381.148 171.261 382.466 166.83 380.928C148.22 374.887 129.609 368.955 110.888 363.134C99.2569 359.509 87.5147 356.214 75.7726 352.699C69.3476 350.722 68.0183 346.878 70.5661 341.056C74.2217 332.598 77.6557 324.031 80.6467 315.353C83.3053 307.445 84.0807 306.676 91.6134 309.861C113.879 318.978 135.924 328.315 158.189 337.431C165.833 340.617 173.587 343.473 181.12 346.768C183.225 347.866 184.665 349.953 186.216 351.381Z" fill="#DD5471"/>
<path d="M432.466 779.426C431.469 790.74 431.912 802.273 429.253 813.147C424.933 830.831 424.158 848.735 421.721 866.639C420.059 879.051 420.059 879.161 407.32 877.404C399.344 876.305 391.257 874.987 383.282 873.669C376.303 872.461 373.755 867.628 376.524 861.257C377.189 859.829 377.521 858.182 377.854 856.644C379.848 846.648 381.841 836.653 383.946 826.657C385.829 817.651 388.045 808.644 390.039 799.527C392.365 788.873 394.581 778.218 397.128 767.563C397.461 766.355 399.787 764.708 401.116 764.817C410.975 765.806 420.724 767.124 430.583 768.552C431.469 768.662 432.466 770.639 432.577 771.737C432.909 774.264 432.687 776.9 432.687 779.426C432.577 779.426 432.577 779.426 432.466 779.426Z" fill="#DD5471"/>
<path d="M331.884 744.167C330.111 748.451 329.114 751.856 327.453 754.931C322.689 763.718 317.704 772.286 312.941 781.073C309.396 787.773 306.295 794.583 302.75 801.284C296.657 812.927 290.121 824.24 284.472 835.993C282.589 839.947 280.484 839.838 277.715 838.3C269.85 834.016 261.763 829.952 254.341 825.009C242.377 816.881 242.377 816.442 250.242 804.14C257.553 792.716 265.64 781.732 273.062 770.309C280.706 758.446 287.906 746.254 295.328 734.171C296.325 732.634 297.433 731.206 298.43 729.668C301.42 725.604 304.633 725.055 309.064 728.02C314.824 731.865 321.139 734.83 327.01 738.455C329.004 739.883 330.444 742.409 331.884 744.167Z" fill="#DD5471"/>
<path d="M243.485 122.911C244.371 121.813 245.147 119.726 246.698 118.847C256.335 113.025 266.194 107.314 276.053 101.932C278.933 100.394 281.703 100.943 283.475 104.348C288.017 113.025 292.891 121.703 297.433 130.38C299.759 134.884 301.642 139.497 304.079 144C308.621 152.568 313.384 161.026 317.926 169.593C321.803 176.842 325.348 184.312 329.225 191.561C331.108 195.186 331.773 197.822 327.12 200.129C320.585 203.424 314.381 207.708 308.067 211.332C300.645 215.616 299.316 214.847 294.996 207.708C288.571 197.163 281.592 187.058 275.056 176.623C271.954 171.68 269.296 166.298 266.083 161.355C259.215 150.591 252.126 140.046 245.258 129.392C244.261 127.854 244.15 125.657 243.485 122.911Z" fill="#DD5471"/>
<path d="M653.687 97.9792C665.872 105.009 676.95 111.709 688.249 117.97C692.458 120.277 692.569 123.133 690.464 126.428C683.928 136.313 676.95 145.87 670.525 155.755C665.54 163.554 661.109 171.682 656.235 179.7C653.576 184.094 650.696 188.488 647.816 192.771C643.939 198.703 640.061 204.524 635.963 210.346C634.19 212.872 631.864 214.08 628.541 212.103C621.23 207.71 613.475 203.975 606.386 199.252C605.057 198.373 604.946 193.98 605.832 192.112C612.146 179.151 619.125 166.41 625.55 153.449C630.978 142.465 635.741 131.261 641.28 120.277C645.157 112.698 649.588 105.448 653.687 97.9792Z" fill="#DD5471"/>
<path d="M762.466 382.025C761.248 381.146 759.254 380.378 758.7 378.95C755.266 370.272 751.943 361.485 749.284 352.478C748.841 351.05 751.278 347.535 753.05 346.876C773.433 338.528 793.926 330.51 814.42 322.382C823.725 318.647 832.919 314.803 842.114 310.849C848.76 307.993 851.086 308.872 853.302 315.572C856.736 325.677 860.059 335.892 863.715 345.888C865.377 350.501 863.161 352.478 859.395 353.577C849.868 356.542 840.452 359.398 830.925 362.144C810.654 368.075 790.382 373.897 770.11 379.828C767.673 380.487 765.346 381.146 762.466 382.025Z" fill="#DD5471"/>
<path d="M103.464 492.744C88.1772 492.744 72.7794 492.524 57.4924 492.854C52.3968 492.963 50.292 490.876 50.4028 486.373C50.5136 481.869 51.289 477.366 51.3998 472.753C51.6214 466.053 51.3998 459.352 51.3998 452.652C51.3998 448.808 53.1722 447.49 57.2709 447.709C76.1027 448.698 94.9345 450.126 113.655 449.686C126.727 449.467 139.466 451.993 152.538 452.213C159.516 452.323 160.513 453.641 160.735 460.341C160.957 466.931 161.067 473.522 160.846 480.112C160.624 487.581 159.627 488.57 151.984 489.009C135.811 489.998 119.527 490.657 103.353 491.535C103.464 491.975 103.464 492.304 103.464 492.744Z" fill="#DD5471"/>
<path d="M506.91 811.83C505.58 802.713 504.251 793.486 502.922 784.37C502.7 782.722 502.7 781.074 502.811 779.427C503.143 766.795 501.039 769.541 513.113 766.356C518.541 764.928 524.301 764.269 530.062 764.049C536.376 763.829 537.705 766.136 538.702 772.177C540.032 780.525 542.358 788.763 544.13 797.001C546.124 806.008 547.897 815.015 549.891 824.022C551.884 833.029 554.1 842.036 556.316 851.043C557.534 855.876 558.974 860.708 560.082 865.651C560.857 868.837 559.196 870.484 556.094 871.033C544.352 873.12 532.72 875.427 520.978 877.514C517.544 878.173 513.778 874.658 513.335 870.484C511.784 856.535 510.344 842.585 508.793 828.635C508.128 823.033 507.131 817.541 506.245 811.939C506.467 811.939 506.688 811.83 506.91 811.83Z" fill="#DD5471"/>
<path d="M692.345 811.83C691.348 813.039 690.683 814.796 689.465 815.565C679.384 821.496 669.082 827.208 658.891 833.03C655.9 834.787 654.127 834.677 652.244 830.833C648.256 822.595 643.161 814.906 638.841 806.778C635.85 801.066 633.523 795.025 630.643 789.203C624.55 777.121 618.347 765.148 612.144 753.176C610.704 750.43 609.042 747.794 607.602 745.048C604.5 739.006 604.943 737.359 610.814 733.844C616.353 730.549 621.892 727.363 627.652 724.398C633.08 721.542 635.85 722.75 639.173 727.803C646.706 739.446 654.571 750.979 662.214 762.622C669.414 773.606 676.393 784.81 683.483 795.904C685.92 799.748 688.357 803.483 690.683 807.437C691.126 808.425 691.459 809.853 692.345 811.83Z" fill="#DD5471"/>
<path d="M464.038 391.581C477.11 390.373 488.077 402.565 488.409 413.659C488.741 424.643 477.11 436.286 465.811 436.286C449.97 436.176 441.44 426.291 440.332 413C439.446 403.334 452.85 391.801 464.038 391.581Z" fill="white"/>
</svg>
